<?xml version="1.0" standalone="no"?>
<!DOCTYPE svg PUBLIC "-//W3C//DTD SVG 20010904//EN"
 "http://www.w3.org/TR/2001/REC-SVG-20010904/DTD/svg10.dtd">
<svg version="1.0" xmlns="http://www.w3.org/2000/svg"
 width="529.000000pt" height="355.000000pt" viewBox="0 0 529.000000 355.000000"
 preserveAspectRatio="xMidYMid meet">
<metadata>
Created by potrace 1.16, written by Peter Selinger 2001-2019
</metadata>
<g transform="translate(0.000000,355.000000) scale(0.100000,-0.100000)"
fill="#000000" stroke="none">
<path d="M485 1909 c4 -6 72 -99 151 -207 79 -108 144 -199 144 -202 0 -3 -45
-72 -99 -155 l-99 -150 181 -3 c99 -1 182 0 185 3 3 2 -11 123 -32 267 -20
145 -36 266 -36 271 0 4 74 7 165 7 l165 0 0 90 0 90 -366 0 c-257 0 -363 -3
-359 -11z"/>
<path d="M3550 1830 l0 -90 166 0 167 0 -6 -32 c-24 -150 -70 -509 -65 -513 3
-3 87 -4 187 -3 l181 3 -100 150 c-55 83 -100 152 -100 155 0 3 68 97 150 209
83 113 150 206 150 208 0 2 -164 3 -365 3 l-365 0 0 -90z"/>
<path d="M934 1683 c2 -10 26 -177 52 -370 l49 -353 1346 0 1347 0 6 33 c7 43
96 685 96 697 0 6 -536 10 -1451 10 -1376 0 -1450 -1 -1445 -17z m1012 -238
c14 -14 28 -25 32 -25 4 0 19 -7 34 -14 24 -13 32 -13 59 1 35 17 94 12 117
-11 12 -12 18 -12 46 4 24 15 48 18 106 16 41 -2 82 -6 92 -10 26 -12 39 -58
36 -127 l-3 -64 -120 -1 c-66 -1 -125 3 -132 8 -7 6 -18 6 -30 0 -25 -13 -394
-12 -411 1 -9 7 -20 6 -38 -2 -14 -6 -45 -11 -70 -11 -58 0 -98 35 -92 81 3
16 1 29 -4 29 -4 0 -8 -20 -8 -44 0 -50 -16 -69 -57 -64 -21 2 -32 12 -42 36
-10 21 -20 31 -29 27 -7 -3 -20 -5 -28 -5 -8 0 -14 -8 -14 -18 0 -26 -20 -42
-51 -42 -43 0 -59 32 -59 120 0 103 12 120 89 120 49 0 62 -4 83 -25 22 -22
28 -23 61 -13 26 8 44 8 59 1 15 -7 32 -7 48 -1 25 9 68 6 103 -7 12 -5 17 -2
17 9 0 19 45 40 63 30 7 -4 22 -16 35 -27 l22 -20 0 26 c0 48 48 60 86 22z
m876 3 c12 -12 38 -30 56 -40 31 -15 38 -16 63 -3 38 20 78 19 115 -4 29 -18
33 -18 48 -3 10 10 30 15 53 14 63 -2 84 -2 168 2 53 2 89 -1 105 -9 21 -11
30 -11 50 1 33 18 74 18 109 -1 36 -18 41 -32 41 -106 0 -86 -4 -88 -225 -87
-102 1 -185 5 -192 11 -7 5 -13 29 -13 53 0 24 -4 44 -10 44 -5 0 -10 -19 -10
-43 0 -24 -5 -48 -12 -55 -15 -15 -60 -16 -75 -1 -7 7 -17 8 -30 1 -23 -13
-294 -12 -310 0 -7 6 -19 5 -32 -1 -29 -16 -103 -13 -129 5 -24 16 -30 62 -11
81 8 8 8 13 0 17 -6 4 -11 25 -11 46 0 58 36 83 113 78 31 -2 57 -1 57 3 0 7
22 15 48 18 6 0 22 -9 34 -21z"/>
</g>
</svg>
